# xmcd
#
# Track frame offsets:
#	150
#	21047
#	38002
#	62010
#	80399
#	101550
#	118916
#	137563
#	154696
#	173737
#	195903
#	218737
#	239440
#	258076
#
# Disc length: 3640 seconds
#
# Revision: 0
# Processed by: cddbd v1.4PL0 Copyright (c) Steve Scherf et al.
# Submitted via: EasyCDDAExtractor 4.6.9.1
#
DISCID=ae0e360e
DTITLE=Faith Hill - Cry
DYEAR=2002
DGENRE=Country
TTITLE0=Free
TTITLE1=Cry
TTITLE2=One
TTITLE3=When The Lights Go Down
TTITLE4=Beautiful
TTITLE5=Unsavable
TTITLE6=Baby You Belong
TTITLE7=If Youre Gonna Fly Away
TTITLE8=Stronger
TTITLE9=If This Is The End
TTITLE10=This Is Me
TTITLE11=Back To You
TTITLE12=I Think I Will
TTITLE13=You're Still Here
EXTD=
EXTT0=
EXTT1=
EXTT2=
EXTT3=
EXTT4=
EXTT5=
EXTT6=
EXTT7=
EXTT8=
EXTT9=
EXTT10=
EXTT11=
EXTT12=
EXTT13=
PLAYORDER=
